<?xml version="1.0" standalone="no"?>
<!DOCTYPE svg PUBLIC "-//W3C//DTD SVG 20010904//EN"
 "http://www.w3.org/TR/2001/REC-SVG-20010904/DTD/svg10.dtd">
<svg version="1.0" xmlns="http://www.w3.org/2000/svg"
 width="626.000000pt" height="626.000000pt" viewBox="0 0 626.000000 626.000000"
 preserveAspectRatio="xMidYMid meet">

<g transform="translate(0.000000,626.000000) scale(0.100000,-0.100000)"
fill="#000000" stroke="none">
<path d="M1390 4360 l0 -110 510 0 c281 0 510 -2 510 -5 0 -2 -146 -217 -324
-477 l-324 -473 -58 -18 c-43 -13 -83 -17 -145 -15 -75 3 -92 7 -134 33 -54
34 -90 91 -101 163 l-7 42 253 0 253 0 -6 78 c-9 137 -58 227 -149 278 -47 26
-63 29 -138 29 -108 0 -172 -27 -235 -97 -57 -64 -86 -141 -93 -246 -9 -166
47 -278 172 -342 67 -34 73 -35 182 -35 63 0 114 -1 114 -3 0 -2 -85 -128
-190 -280 l-190 -277 0 -77 0 -78 740 0 741 0 -3 108 -3 107 -564 3 c-472 2
-562 4 -558 16 10 25 670 986 675 982 2 -3 45 -114 96 -248 l92 -243 63 0 64
0 54 140 c31 77 92 236 138 353 l83 212 -68 0 -68 0 -98 -290 -99 -289 -19 57
c-10 31 -47 140 -82 241 -35 102 -64 191 -64 199 0 8 76 126 170 263 l170 249
0 80 0 80 -680 0 -680 0 0 -110z m226 -590 c39 -25 74 -92 74 -143 l0 -37
-185 0 -185 0 6 28 c10 45 43 107 68 131 56 53 155 62 222 21z"/>
<path d="M5470 3690 l0 -520 65 0 64 0 3 249 3 249 31 39 c45 56 87 75 158 70
53 -3 62 -7 92 -39 18 -20 37 -53 43 -75 6 -22 11 -135 11 -265 l0 -228 66 0
66 0 -4 258 c-5 274 -9 304 -60 373 -81 109 -258 116 -364 15 l-44 -43 0 219
0 218 -65 0 -65 0 0 -520z"/>
<path d="M4711 4151 l-44 -6 -23 -104 c-22 -96 -47 -190 -59 -223 -4 -10 5
-13 35 -10 38 4 43 8 67 55 29 59 68 157 93 240 l18 57 -21 -2 c-12 0 -42 -4
-66 -7z"/>
<path d="M5035 4062 l-50 -17 -3 -82 -3 -83 -49 0 -50 0 0 -50 0 -50 49 0 49
0 4 -237 c5 -259 14 -302 65 -343 18 -14 21 -21 12 -24 -8 -3 -31 -10 -51 -16
-53 -16 -132 -91 -163 -154 -38 -78 -55 -148 -62 -261 -18 -299 98 -515 284
-532 169 -15 296 95 339 295 19 89 19 303 0 384 -28 121 -79 206 -150 249 -32
19 -32 18 23 35 7 2 10 11 7 20 -3 9 -6 29 -6 45 0 29 -1 29 -58 29 -50 0 -62
4 -83 26 -24 25 -24 28 -27 255 l-3 229 90 0 91 0 0 50 0 50 -90 0 -90 0 0
100 c0 112 3 109 -75 82z m145 -1004 c18 -13 37 -30 42 -38 7 -11 -27 -84
-132 -277 -78 -145 -146 -260 -151 -258 -19 12 -31 125 -27 249 5 139 23 213
69 277 49 69 136 90 199 47z m110 -231 c27 -158 -4 -373 -66 -455 -47 -61
-121 -79 -191 -45 -68 32 -68 33 88 320 79 144 146 260 150 257 4 -2 13 -37
19 -77z"/>
<path d="M780 3881 c-101 -31 -160 -102 -160 -192 0 -88 52 -147 174 -198 39
-16 85 -41 103 -56 28 -22 33 -32 33 -70 0 -32 -7 -51 -24 -72 -21 -24 -32
-28 -92 -31 -63 -3 -96 3 -166 33 -13 5 -20 0 -28 -19 -26 -71 -26 -72 32 -92
38 -14 80 -19 148 -19 84 1 101 4 147 28 66 34 104 89 111 156 10 107 -33 161
-184 231 -56 26 -109 58 -118 71 -25 36 -20 76 13 110 26 26 36 29 91 29 33 0
77 -7 97 -15 48 -20 48 -21 62 27 11 37 11 43 -4 54 -38 28 -176 43 -235 25z"/>
<path d="M3245 3877 c-67 -23 -101 -44 -144 -93 -54 -62 -83 -139 -89 -242
-10 -167 47 -279 174 -342 l71 -36 -43 -18 c-57 -24 -127 -102 -155 -174 -30
-79 -37 -204 -15 -286 25 -91 76 -153 160 -196 67 -34 73 -35 180 -35 131 0
231 24 222 53 -3 9 -8 29 -12 45 -7 32 -2 31 -71 11 -37 -11 -82 -15 -137 -12
-71 3 -90 7 -131 33 -54 34 -90 91 -101 163 l-7 42 253 0 253 0 -6 78 c-10
134 -55 224 -139 271 l-48 28 52 12 c77 17 79 20 67 66 -6 22 -12 41 -14 43
-2 2 -29 -4 -60 -13 -39 -12 -83 -16 -139 -13 -71 3 -90 7 -131 33 -54 34 -90
91 -101 163 l-7 42 253 0 253 0 -6 78 c-13 192 -109 301 -271 309 -41 1 -88
-3 -111 -10z m181 -107 c39 -25 74 -92 74 -143 l0 -37 -185 0 -185 0 6 28 c10
45 43 107 68 131 56 53 155 62 222 21z m20 -710 c39 -25 74 -92 74 -143 l0
-37 -185 0 -185 0 6 28 c10 45 43 107 68 131 56 53 155 62 222 21z"/>
<path d="M4061 3873 c-25 -9 -66 -37 -93 -64 l-48 -48 0 59 0 60 -61 0 c-52 0
-60 -2 -55 -16 3 -9 6 -168 6 -355 l0 -339 65 0 65 0 0 235 c0 262 4 283 70
338 62 53 166 49 217 -6 41 -45 53 -91 53 -203 l0 -92 -77 -7 c-43 -3 -88 -9
-100 -12 l-23 -5 0 -484 0 -484 65 0 65 0 0 210 0 210 85 0 c160 0 187 -27
245 -249 22 -84 42 -157 45 -162 4 -5 36 -9 72 -9 58 0 64 2 58 18 -5 9 -25
84 -47 165 -21 82 -47 166 -58 187 -19 37 -72 90 -91 90 -20 0 -7 18 17 24 14
4 48 29 74 55 85 85 101 205 43 313 -37 67 -104 110 -198 127 l-40 7 -7 124
c-9 177 -38 246 -126 297 -56 33 -156 40 -221 16z m219 -618 l0 -85 65 0 65 0
0 80 c0 48 4 80 10 80 6 0 25 -6 43 -14 103 -42 129 -189 50 -277 -45 -49
-107 -69 -220 -69 l-83 0 0 179 c0 189 0 189 48 190 21 1 22 -2 22 -84z"/>
<path d="M3876 2354 c-18 -18 -21 -85 -6 -115 25 -45 80 -4 80 59 0 64 -38 93
-74 56z m50 -17 c3 -13 4 -41 2 -63 -2 -31 -7 -39 -23 -39 -17 0 -20 8 -23 49
-2 27 -1 55 2 62 9 22 35 16 42 -9z"/>
<path d="M4022 2358 c-17 -17 -15 -113 3 -128 37 -31 79 18 71 84 -6 52 -44
74 -74 44z m46 -10 c14 -14 16 -86 3 -107 -26 -41 -62 38 -42 92 12 30 21 33
39 15z"/>
<path d="M4166 2348 c-21 -29 -20 -92 0 -112 37 -37 74 -5 74 63 0 70 -41 97
-74 49z m52 -51 c2 -46 0 -59 -14 -64 -21 -8 -34 13 -34 59 0 49 9 70 29 66
12 -2 17 -17 19 -61z"/>
<path d="M4312 2358 c-17 -17 -15 -113 3 -128 37 -31 79 18 71 84 -6 52 -44
74 -74 44z m46 -10 c14 -14 16 -86 3 -107 -26 -41 -62 38 -42 92 12 30 21 33
39 15z"/>
<path d="M4461 2356 c-19 -22 -23 -78 -9 -106 16 -29 49 -37 67 -16 17 20 18
101 1 121 -16 19 -44 19 -59 1z m49 -15 c15 -28 12 -74 -5 -97 -15 -19 -15
-19 -30 0 -15 20 -20 72 -9 100 8 22 31 20 44 -3z"/>
<path d="M4606 2354 c-18 -18 -21 -85 -6 -115 25 -45 80 -4 80 59 0 64 -38 93
-74 56z m50 -17 c3 -13 4 -41 2 -63 -2 -31 -7 -39 -23 -39 -17 0 -20 8 -23 49
-2 27 -1 55 2 62 9 22 35 16 42 -9z"/>
</g>
</svg>
